<svg width="124" height="124" viewBox="0 0 124 124" fill="none" xmlns="http://www.w3.org/2000/svg">
<path fill-rule="evenodd" clip-rule="evenodd" d="M100.439 92.3801C88.6595 97.3401 75.6395 99.8201 62.6195 99.8201C45.2595 99.8201 28.5195 95.4801 13.6395 86.8001C12.3995 86.1801 11.7795 87.4201 12.3995 88.0401C26.0395 100.44 43.3995 106.64 61.3795 106.64C75.6395 106.64 89.8995 102.3 101.679 94.2401C104.159 93.6201 102.299 91.1401 100.439 92.3801ZM111.599 86.1801C106.019 83.7001 99.1995 84.3201 94.2395 88.0401C92.9995 88.6601 93.6195 89.9001 94.2395 89.2801C97.9595 88.6601 105.399 88.0401 106.639 89.9001C107.879 91.7601 105.399 99.2001 103.539 102.3C102.919 103.54 104.159 103.54 104.779 102.92C109.739 98.5801 112.219 92.3801 111.599 86.1801ZM55.7995 78.1201C62.6195 78.7401 69.4395 75.6401 73.7795 70.0601C75.6395 72.5401 77.4995 75.0201 79.9795 77.5001C80.5995 78.1201 81.8395 78.1201 82.4595 77.5001C84.3195 75.6401 88.6595 71.9201 90.5195 70.0601C91.1395 69.4401 91.1395 68.2001 90.5195 66.9601C88.0395 64.4801 86.7995 60.7601 86.1795 57.0401V40.3001C86.1795 33.4801 86.7995 26.6601 81.2195 21.7001C76.8795 17.9801 70.6795 16.1201 65.0995 16.1201C55.1795 16.7401 43.3995 20.4601 41.5395 32.8601C41.5395 34.1001 42.1595 34.7201 43.3995 34.7201L53.9395 35.9601C55.1795 35.9601 55.7995 34.7201 55.7995 34.1001C56.4195 29.7601 60.1395 27.2801 64.4795 27.9001C66.9595 27.9001 68.8195 29.1401 70.6795 31.0001C71.9195 33.4801 72.5395 35.9601 71.9195 39.0601V40.3001C65.0995 40.3001 58.2795 41.5401 51.4595 44.0201C44.0195 46.5001 39.0595 53.3201 39.6795 61.3801V63.8601C39.6795 71.9201 47.1195 78.7401 55.7995 78.1201ZM71.2995 48.3601V50.8401C71.9195 54.5601 71.2995 58.9001 69.4395 62.0001C68.1995 65.1001 65.0995 66.9601 61.9995 66.9601C57.6595 66.9601 55.1795 63.8601 55.1795 58.9001C55.1795 50.2201 63.2395 48.3601 71.2995 48.3601Z" fill="white"/>
</svg>
