<svg width="108" height="108" viewBox="0 0 108 108" fill="none" xmlns="http://www.w3.org/2000/svg">
<path d="M90 73.1067C90 71.7773 89.7381 70.4609 89.2292 69.2327C88.7203 68.0045 87.9744 66.8886 87.0342 65.9488C86.0939 65.009 84.9777 64.2636 83.7493 63.7553C82.5209 63.2469 81.2044 62.9856 79.875 62.9862H28.125C26.7952 62.9856 25.4783 63.2471 24.2496 63.7557C23.0209 64.2643 21.9045 65.0101 20.9642 65.9504C20.0239 66.8907 19.2781 68.0071 18.7695 69.2358C18.2609 70.4645 17.9994 71.7814 18 73.1112V75.7077C18 79.7262 19.4355 83.6097 22.041 86.6652C29.0925 94.9182 39.8295 98.9952 53.982 98.9952C68.139 98.9952 78.8805 94.9227 85.941 86.6697C88.5598 83.6124 89.9994 79.7197 90 75.6942V73.1067ZM28.1205 69.7362H79.875C81.7335 69.7362 83.241 71.2437 83.241 73.1112V75.6987C83.2417 78.1127 82.3799 80.4475 80.811 82.2822C75.1545 88.8882 66.303 92.2407 53.9775 92.2407C41.6565 92.2407 32.8095 88.8882 27.171 82.2822C25.6057 80.4492 24.7457 78.118 24.7455 75.7077V73.1067C24.7467 72.2131 25.1022 71.3565 25.734 70.7247C26.3658 70.0929 27.2225 69.7374 28.116 69.7362H28.1205ZM76.4865 31.5087C76.4871 26.77 74.9915 22.1521 72.2131 18.3134C69.4346 14.4747 65.5151 11.6112 61.0135 10.1313C56.5118 8.65136 51.6578 8.63049 47.1435 10.0717C42.6293 11.5129 38.6854 14.3425 35.874 18.1572C35.5479 18.0539 35.208 18.0008 34.866 17.9997H23.625C22.7299 17.9997 21.8715 18.3553 21.2385 18.9882C20.6056 19.6211 20.25 20.4796 20.25 21.3747V46.1157C20.2488 47.7415 20.568 49.3517 21.1894 50.8541C21.8108 52.3566 22.7221 53.7219 23.8714 54.8719C25.0206 56.022 26.3852 56.9344 27.8872 57.5568C29.3892 58.1793 30.9991 58.4997 32.625 58.4997H33.75V58.4817H33.795C34.5574 58.4829 35.3076 58.2899 35.9748 57.9211C36.642 57.5522 37.2044 57.0195 37.6089 56.3733C38.0133 55.727 38.2466 54.9884 38.2867 54.227C38.3269 53.4657 38.1725 52.7066 37.8382 52.0214C37.5039 51.3362 37.0006 50.7474 36.3759 50.3104C35.7511 49.8735 35.0254 49.6028 34.2671 49.5238C33.5087 49.4449 32.7428 49.5603 32.0414 49.8591C31.34 50.158 30.7263 50.6305 30.258 51.2322C29.2835 50.7801 28.4588 50.0585 27.8815 49.1526C27.3041 48.2467 26.9982 47.1944 27 46.1202V44.9997H30.366C32.076 44.9997 33.6645 44.4507 34.956 43.5237C37.5588 47.65 41.4322 50.8186 45.9925 52.5519C50.5528 54.2853 55.553 54.4894 60.2395 53.1336C64.9259 51.7778 69.0447 48.9355 71.9752 45.035C74.9056 41.1346 76.4889 36.3873 76.4865 31.5087ZM31.4865 31.0317C31.4799 31.3496 31.4799 31.6677 31.4865 31.9857V37.1202C31.4865 37.4185 31.368 37.7047 31.157 37.9157C30.946 38.1266 30.6599 38.2452 30.3615 38.2452H27V24.7542H31.491V31.0317H31.4865ZM38.2365 31.9092V31.1082C38.3418 26.967 40.0744 23.0341 43.0589 20.1614C46.0434 17.2886 50.0395 15.7073 54.1817 15.7599C58.3238 15.8126 62.2784 17.495 65.1889 20.4428C68.0994 23.3905 69.7314 27.3662 69.7314 31.5087C69.7314 35.6511 68.0994 39.6268 65.1889 42.5746C62.2784 45.5223 58.3238 47.2047 54.1817 47.2574C50.0395 47.3101 46.0434 45.7288 43.0589 42.856C40.0744 39.9832 38.3418 36.0503 38.2365 31.9092Z" fill="white"/>
</svg>
