<svg width="21" height="30" viewBox="0 0 21 30" fill="none" xmlns="http://www.w3.org/2000/svg">
<path d="M18.9516 21.8649H19.4516V21.3649V4.43866C19.4516 2.84163 18.1564 1.54741 16.5592 1.54741H4.4408C2.84359 1.54741 1.5484 2.84163 1.5484 4.43866V21.3649V21.8649H2.0484H18.9516ZM2.0484 22.9202H1.5484V23.4202V25.5692C1.5484 27.1662 2.84359 28.4604 4.4408 28.4604H16.5592H16.567C18.1642 28.4604 19.4594 27.1662 19.4594 25.5692V23.4202V22.9202H18.9594H2.0484ZM4.4408 0.5H16.5592C18.7304 0.5 20.5 2.26908 20.5 4.43866V25.5613C20.5 27.7309 18.7304 29.5 16.5592 29.5H4.4408C2.26958 29.5 0.5 27.7309 0.5 25.5613V4.43866C0.5 2.26908 2.26958 0.5 4.4408 0.5Z" fill="#0A1940" stroke="#0A1940"/>
<path d="M8.5 9H17M8.5 11H12.75H17M8.5 14.5H17M8.5 17H17" stroke="#0A1940" stroke-linejoin="round"/>
<rect x="3.5" y="8.5" width="3" height="3" stroke="#0A1940"/>
<rect x="3.5" y="13.5" width="3" height="3" stroke="#0A1940"/>
</svg>
