<svg width="19" height="25" viewBox="0 0 19 25" fill="none" xmlns="http://www.w3.org/2000/svg">
<path d="M9.5 24.4434C9.26671 24.4434 9.0399 24.3462 8.8779 24.1712C8.51501 23.7824 0 14.5546 0 9.5C0 4.44543 4.26398 0 9.5 0C14.736 0 19 4.26399 19 9.5C19 14.736 10.485 23.7759 10.1221 24.1712C9.96009 24.3462 9.73329 24.4434 9.5 24.4434V24.4434ZM9.5 1.7043C5.19713 1.7043 1.69782 5.20362 1.69782 9.50649C1.69782 12.8632 6.85607 19.3564 9.5 22.3308C12.1439 19.3564 17.3022 12.8568 17.3022 9.50649C17.3022 5.20362 13.8029 1.7043 9.5 1.7043Z" fill="#0A1940"/>
<path d="M9.4996 13.3683C7.1408 13.3683 5.22266 11.4502 5.22266 9.09138C5.22266 6.73258 7.1408 4.81445 9.4996 4.81445C11.8584 4.81445 13.7765 6.73258 13.7765 9.09138C13.7765 11.4502 11.8584 13.3683 9.4996 13.3683ZM9.4996 6.51227C8.08043 6.51227 6.92047 7.66573 6.92047 9.09138C6.92047 10.517 8.07395 11.6705 9.4996 11.6705C10.9252 11.6705 12.0787 10.517 12.0787 9.09138C12.0787 7.66573 10.9252 6.51227 9.4996 6.51227Z" fill="#0A1940"/>
</svg>
