<svg width="25" height="25" viewBox="0 0 25 25" fill="none" xmlns="http://www.w3.org/2000/svg">
<path d="M12.498 10.0031C11.1208 10.0031 9.99697 11.1279 9.99697 12.5063C9.99697 13.8846 11.1208 15.0095 12.498 15.0095C13.8751 15.0095 14.999 13.8846 14.999 12.5063C14.999 11.1279 13.8751 10.0031 12.498 10.0031ZM19.9992 12.5063C19.9992 11.4697 20.0085 10.4425 19.9504 9.40779C19.8922 8.20596 19.6183 7.13933 18.7402 6.26049C17.8603 5.37977 16.7964 5.10747 15.5956 5.04926C14.56 4.99105 13.5337 5.00044 12.4999 5.00044C11.4642 5.00044 10.4379 4.99105 9.40408 5.04926C8.20329 5.10747 7.13759 5.38164 6.25951 6.26049C5.37956 7.1412 5.1075 8.20596 5.04934 9.40779C4.99118 10.4444 5.00056 11.4716 5.00056 12.5063C5.00056 13.541 4.99118 14.57 5.04934 15.6048C5.1075 16.8066 5.38143 17.8732 6.25951 18.7521C7.13946 19.6328 8.20329 19.9051 9.40408 19.9633C10.4398 20.0215 11.4661 20.0121 12.4999 20.0121C13.5355 20.0121 14.5618 20.0215 15.5956 19.9633C16.7964 19.9051 17.8621 19.6309 18.7402 18.7521C19.6202 17.8713 19.8922 16.8066 19.9504 15.6048C20.0104 14.57 19.9992 13.5429 19.9992 12.5063ZM12.498 16.3578C10.3685 16.3578 8.64983 14.6376 8.64983 12.5063C8.64983 10.3749 10.3685 8.65477 12.498 8.65477C14.6275 8.65477 16.3461 10.3749 16.3461 12.5063C16.3461 14.6376 14.6275 16.3578 12.498 16.3578ZM16.5037 9.39652C16.0065 9.39652 15.605 8.99466 15.605 8.49702C15.605 7.99939 16.0065 7.59753 16.5037 7.59753C17.0009 7.59753 17.4025 7.99939 17.4025 8.49702C17.4026 8.61519 17.3795 8.73222 17.3343 8.84142C17.2892 8.95062 17.223 9.04984 17.1396 9.1334C17.0561 9.21695 16.9569 9.2832 16.8478 9.32835C16.7387 9.37351 16.6218 9.39667 16.5037 9.39652Z" fill="white"/>
</svg>
