<svg width="124" height="124" viewBox="0 0 124 124" fill="none" xmlns="http://www.w3.org/2000/svg">
<path d="M45.4201 35L44.8162 37.5128L32.9074 92.2084L32 96.1304H47.7418L45.8237 105.078L44.9163 109H67.4198L67.9235 106.384L71.2527 90.9022H79.9324C92.077 90.9022 102.749 83.0357 105.462 70.3913C106.886 63.7442 105.374 58.1137 102.232 54.3043C99.6815 51.2157 96.2264 49.3496 92.6453 48.4712C91.9511 45.2924 90.4883 42.5898 88.5089 40.5307C84.8374 36.7213 79.7419 35 74.9855 35H45.4201ZM50.6673 41.4348H74.9855C78.1532 41.4348 81.6471 42.6542 83.8655 44.9546C86.0871 47.255 87.3852 50.5336 86.1904 56.1157C84.0592 66.0671 76.5128 71.5978 67.0161 71.5978H53.0859L52.5821 74.1106L49.2562 89.6957H40.0727L50.6673 41.4348ZM58.8401 46.1611L58.2363 48.6739L54.9071 63.5543L53.9997 67.4763H65.3984C71.1397 67.4763 76.0963 63.3163 77.5074 57.7244H77.6107C77.6236 57.6601 77.5978 57.5861 77.6107 57.5217C78.3179 54.7065 77.8626 51.8173 76.2997 49.6777C74.6981 47.4899 71.9986 46.1611 69.1344 46.1611H58.8401ZM63.9873 52.5959H69.1344C70.1451 52.5959 70.6747 52.8855 71.0525 53.4003C71.4303 53.915 71.6951 54.7451 71.3528 56.0128V56.1125C70.7489 58.7186 67.6587 61.0416 65.4016 61.0416H62.0724L63.9873 52.5959ZM92.8488 55.4111C94.5505 56.1029 96.1521 57.0456 97.2887 58.4258C99.1681 60.7005 100.201 63.8439 99.1035 68.9821C96.9723 78.9367 89.4292 84.4674 79.9324 84.4674H66.0022L65.4985 86.9802L62.1725 102.565H52.989L54.4033 96.1304H54.5002L55.0072 93.5147L58.3364 78.0326H67.0161C79.1607 78.0326 89.8328 70.1661 92.5452 57.5217C92.697 56.7914 92.7583 56.1125 92.8488 55.4111Z" fill="white"/>
</svg>
