<svg width="24" height="24" viewBox="0 0 24 24" fill="none" xmlns="http://www.w3.org/2000/svg">
<mask id="path-1-inside-1_907_9365" fill="white">
<path d="M23.807 11.4799L14.9312 1.33018C14.1921 0.485422 13.1245 0 12.0063 0C10.8882 0 9.82054 0.485422 9.08142 1.33018L0.205638 11.4799C-0.00914917 11.7258 -0.0596874 12.0725 0.0729755 12.3625C0.205638 12.6588 0.50255 12.8479 0.824732 12.8479H2.3472V23.1742C2.3472 23.6281 2.71992 24 3.17476 24H20.8316C21.2864 24 21.6591 23.6281 21.6591 23.1742V12.8479H23.1753C23.4974 12.8479 23.7944 12.6588 23.927 12.3625C24.0597 12.0662 24.0091 11.7195 23.7944 11.4799H23.807ZM10.3322 2.4145C10.7555 1.92908 11.3683 1.6517 12.0126 1.6517C12.657 1.6517 13.2698 1.92908 13.693 2.4145L21.3685 11.1962H2.65674L10.3322 2.4145ZM20.0103 22.3483H4.00864V12.8479H20.0103V22.3483Z"/>
</mask>
<path d="M23.807 11.4799L14.9312 1.33018C14.1921 0.485422 13.1245 0 12.0063 0C10.8882 0 9.82054 0.485422 9.08142 1.33018L0.205638 11.4799C-0.00914917 11.7258 -0.0596874 12.0725 0.0729755 12.3625C0.205638 12.6588 0.50255 12.8479 0.824732 12.8479H2.3472V23.1742C2.3472 23.6281 2.71992 24 3.17476 24H20.8316C21.2864 24 21.6591 23.6281 21.6591 23.1742V12.8479H23.1753C23.4974 12.8479 23.7944 12.6588 23.927 12.3625C24.0597 12.0662 24.0091 11.7195 23.7944 11.4799H23.807ZM10.3322 2.4145C10.7555 1.92908 11.3683 1.6517 12.0126 1.6517C12.657 1.6517 13.2698 1.92908 13.693 2.4145L21.3685 11.1962H2.65674L10.3322 2.4145ZM20.0103 22.3483H4.00864V12.8479H20.0103V22.3483Z" fill="#0A1940"/>
<path d="M23.807 11.4799V13.4799H28.2128L25.3125 10.1633L23.807 11.4799ZM14.9312 1.33018L16.4368 0.0136118L16.4364 0.0132158L14.9312 1.33018ZM9.08142 1.33018L7.57623 0.0132157L7.57588 0.0136118L9.08142 1.33018ZM0.205638 11.4799L-1.2999 10.1633L-1.30055 10.1641L0.205638 11.4799ZM0.0729755 12.3625L1.89836 11.5452L1.89506 11.5378L1.8917 11.5305L0.0729755 12.3625ZM2.3472 12.8479H4.3472V10.8479H2.3472V12.8479ZM21.6591 12.8479V10.8479H19.6591V12.8479H21.6591ZM23.7944 11.4799V9.4799H19.315L22.3053 12.815L23.7944 11.4799ZM10.3322 2.4145L11.8381 3.73068L11.8397 3.72889L10.3322 2.4145ZM13.693 2.4145L12.1856 3.7289L12.1872 3.73068L13.693 2.4145ZM21.3685 11.1962V13.1962H25.7728L22.8744 9.88004L21.3685 11.1962ZM2.65674 11.1962L1.15087 9.88004L-1.74758 13.1962H2.65674V11.1962ZM20.0103 22.3483V24.3483H22.0103V22.3483H20.0103ZM4.00864 22.3483H2.00864V24.3483H4.00864V22.3483ZM4.00864 12.8479V10.8479H2.00864V12.8479H4.00864ZM20.0103 12.8479H22.0103V10.8479H20.0103V12.8479ZM25.3125 10.1633L16.4368 0.0136118L13.4257 2.64675L22.3015 12.7965L25.3125 10.1633ZM16.4364 0.0132158C15.3191 -1.26383 13.7036 -2 12.0063 -2V2C12.5454 2 13.0651 2.23468 13.426 2.64715L16.4364 0.0132158ZM12.0063 -2C10.3091 -2 8.69358 -1.26383 7.57623 0.0132158L10.5866 2.64715C10.9475 2.23468 11.4672 2 12.0063 2V-2ZM7.57588 0.0136118L-1.2999 10.1633L1.71118 12.7965L10.587 2.64675L7.57588 0.0136118ZM-1.30055 10.1641C-2.02552 10.9939 -2.21009 12.1795 -1.74575 13.1945L1.8917 11.5305C2.09072 11.9655 2.00722 12.4576 1.71183 12.7957L-1.30055 10.1641ZM-1.75241 13.1798C-1.29329 14.2052 -0.275282 14.8479 0.824732 14.8479V10.8479C1.28038 10.8479 1.70456 11.1124 1.89836 11.5452L-1.75241 13.1798ZM0.824732 14.8479H2.3472V10.8479H0.824732V14.8479ZM0.347196 12.8479V23.1742H4.3472V12.8479H0.347196ZM0.347196 23.1742C0.347196 24.7365 1.61927 26 3.17476 26V22C3.82056 22 4.3472 22.5196 4.3472 23.1742H0.347196ZM3.17476 26H20.8316V22H3.17476V26ZM20.8316 26C22.3871 26 23.6591 24.7365 23.6591 23.1742H19.6591C19.6591 22.5196 20.1857 22 20.8316 22V26ZM23.6591 23.1742V12.8479H19.6591V23.1742H23.6591ZM21.6591 14.8479H23.1753V10.8479H21.6591V14.8479ZM23.1753 14.8479C24.2753 14.8479 25.2933 14.2052 25.7524 13.1798L22.1016 11.5452C22.2954 11.1124 22.7196 10.8479 23.1753 10.8479V14.8479ZM25.7524 13.1798C26.1987 12.1831 26.0404 10.989 25.2835 10.1448L22.3053 12.815C21.9779 12.4499 21.9207 11.9493 22.1016 11.5452L25.7524 13.1798ZM23.7944 13.4799H23.807V9.4799H23.7944V13.4799ZM11.8397 3.72889C11.8812 3.68129 11.9433 3.6517 12.0126 3.6517V-0.348304C10.7933 -0.348304 9.62981 0.176865 8.8248 1.10011L11.8397 3.72889ZM12.0126 3.6517C12.082 3.6517 12.1441 3.68129 12.1856 3.72889L15.2005 1.10011C14.3955 0.176865 13.232 -0.348304 12.0126 -0.348304V3.6517ZM12.1872 3.73068L19.8626 12.5124L22.8744 9.88004L15.1989 1.09832L12.1872 3.73068ZM21.3685 9.19622H2.65674V13.1962H21.3685V9.19622ZM4.16262 12.5124L11.8381 3.73068L8.82636 1.09832L1.15087 9.88004L4.16262 12.5124ZM20.0103 20.3483H4.00864V24.3483H20.0103V20.3483ZM6.00864 22.3483V12.8479H2.00864V22.3483H6.00864ZM4.00864 14.8479H20.0103V10.8479H4.00864V14.8479ZM18.0103 12.8479V22.3483H22.0103V12.8479H18.0103Z" fill="#0A1940" mask="url(#path-1-inside-1_907_9365)"/>
</svg>
