<svg width="25" height="25" viewBox="0 0 25 25" fill="none" xmlns="http://www.w3.org/2000/svg">
<path d="M10.026 19.0117C16.064 19.0117 19.367 14.0044 19.367 9.6697C19.367 9.52958 19.367 9.38746 19.361 9.24734C20.0041 8.78143 20.5591 8.2046 21 7.54389C20.3993 7.80896 19.7628 7.98367 19.111 8.06233C19.7975 7.65162 20.3117 7.0054 20.558 6.24378C19.913 6.62623 19.207 6.89471 18.471 7.03745C17.9762 6.51003 17.3214 6.16063 16.6081 6.04337C15.8948 5.92611 15.1627 6.04753 14.5253 6.38884C13.888 6.73015 13.3808 7.27228 13.0824 7.93128C12.7841 8.59027 12.7112 9.32934 12.875 10.034C11.5697 9.9685 10.2928 9.62913 9.12704 9.0379C7.96127 8.44667 6.93268 7.61679 6.108 6.60208C5.68934 7.32578 5.56157 8.18183 5.75065 8.99639C5.93972 9.81095 6.43145 10.523 7.126 10.9878C6.60554 10.9701 6.09652 10.8302 5.64 10.5795V10.6245C5.6409 11.3826 5.90331 12.1172 6.38287 12.704C6.86244 13.2909 7.52975 13.694 8.272 13.8453C7.99026 13.9229 7.69923 13.9617 7.407 13.9603C7.20098 13.961 6.99538 13.9419 6.793 13.9033C7.00279 14.5559 7.41127 15.1265 7.96125 15.5352C8.51122 15.9438 9.17513 16.1701 9.86 16.1822C8.69656 17.0968 7.2594 17.5928 5.78 17.5904C5.51932 17.5915 5.25882 17.5765 5 17.5454C6.50151 18.5035 8.2453 19.0122 10.026 19.0117Z" fill="white"/>
</svg>
