<svg width="25" height="25" viewBox="0 0 25 25" fill="none" xmlns="http://www.w3.org/2000/svg">
<path d="M20.644 8.78046C20.5478 8.43683 20.3603 8.12573 20.1015 7.88023C19.8354 7.62718 19.5093 7.44616 19.1539 7.35427C17.8238 7.00339 12.495 7.00339 12.495 7.00339C10.2735 6.9781 8.05257 7.08936 5.84469 7.33655C5.48929 7.43523 5.16376 7.62029 4.89707 7.87527C4.63502 8.12762 4.44521 8.4388 4.34606 8.77975C4.10787 10.064 3.99215 11.368 4.00044 12.6741C3.99194 13.9791 4.10738 15.2827 4.34606 16.5685C4.44309 16.908 4.63219 17.2178 4.89494 17.468C5.1577 17.7182 5.4849 17.899 5.84469 17.9947C7.19247 18.3449 12.495 18.3449 12.495 18.3449C14.7194 18.3702 16.9432 18.2589 19.1539 18.0117C19.5093 17.9198 19.8354 17.7388 20.1015 17.4857C20.3602 17.2403 20.5475 16.9291 20.6433 16.5855C20.8877 15.3018 21.0066 13.9972 20.9982 12.6904C21.0165 11.3781 20.8978 10.0674 20.644 8.77975V8.78046ZM10.8009 15.1012V10.2478L15.2345 12.6748L10.8009 15.1012Z" fill="white"/>
</svg>
